<?xml version="1.0" encoding="utf-8"?>
<!-- Generator: Adobe Illustrator 25.2.0, SVG Export Plug-In . SVG Version: 6.00 Build 0)  -->
<svg version="1.1" id="Aspose.3D" xmlns="http://www.w3.org/2000/svg" xmlns:xlink="http://www.w3.org/1999/xlink" x="0px" y="0px"
	 viewBox="0 0 277 277" style="enable-background:new 0 0 277 277;" xml:space="preserve">
<style type="text/css">
	.st0{fill-rule:evenodd;clip-rule:evenodd;fill:#FFFFFF;}
	.st1{fill-rule:evenodd;clip-rule:evenodd;fill:#A4C547;}
	.st2{fill:#A4C547;}
	.st3{fill:#DBDBDD;}
	.st4{fill:#EFEDF0;}
	.st5{fill:#FFFFFF;}
</style>
<g id="_x2E_NET">
	<path id="XMLID_8_" class="st0" d="M180.46,87.48c-25.78,0-47.67,9.07-65.69,27.2c-18.12,18.02-27.18,39.93-27.18,65.72
		s9.06,47.65,27.18,65.56c6.65,6.78,13.85,12.3,21.61,16.56H23.59c-1.8-0.11-3.55-0.62-5.23-1.52c-2.81-1.35-4.22-4-4.22-7.94V23.62
		c0.22-2.03,0.67-3.77,1.35-5.24c1.46-2.82,4.17-4.22,8.1-4.22h229.47l1.52,0.34c1.35,0.23,2.53,0.56,3.55,1.01
		c2.93,1.35,4.39,4.05,4.39,8.11v112.87c-4.26-7.79-9.77-15.06-16.55-21.79C227.74,96.55,205.9,87.48,180.46,87.48z"/>
	<g>
		<path id="XMLID_2_" class="st1" d="M180.46,87.48c25.44,0,47.28,9.07,65.51,27.2c6.78,6.74,12.29,14,16.55,21.79V23.62
			c0-4.06-1.46-6.76-4.39-8.11c-1.01-0.45-2.2-0.79-3.55-1.01l-1.52-0.34H23.59c-3.94,0-6.64,1.41-8.1,4.22
			c-0.68,1.46-1.13,3.21-1.35,5.24v229.45c0,3.94,1.41,6.59,4.22,7.94c1.69,0.9,3.43,1.41,5.23,1.52h112.79
			c-7.76-4.26-14.96-9.78-21.61-16.56c-18.12-17.91-27.18-39.76-27.18-65.56s9.06-47.7,27.18-65.72
			C132.78,96.55,154.68,87.48,180.46,87.48z M259.14,3.68c2.48,0.45,4.39,1.07,5.74,1.86c5.63,2.7,8.44,7.6,8.44,14.7v160.18
			c0,25.68-9.12,47.54-27.36,65.56c-18.23,18.25-40.07,27.37-65.51,27.37H20.21c-2.7,0-5.52-0.67-8.44-2.03
			c-5.63-2.93-8.44-7.88-8.44-14.87V20.24c0-2.82,0.73-5.63,2.19-8.45c2.7-5.63,7.6-8.45,14.69-8.45h236.23L259.14,3.68z"/>
		<g>
			<path class="st2" d="M71.62,51.19c0,3.71-1.08,6.8-3.24,9.27c-2.16,2.47-5.21,4.13-9.13,4.98v0.32c4.7,0.59,8.22,2.05,10.57,4.38
				c2.35,2.34,3.52,5.44,3.52,9.31c0,5.63-1.99,9.98-5.97,13.03c-3.98,3.06-9.64,4.58-16.98,4.58c-6.49,0-11.96-1.05-16.42-3.16
				v-8.37c2.48,1.23,5.11,2.18,7.89,2.84c2.78,0.67,5.45,1,8.01,1c4.54,0,7.93-0.84,10.17-2.52s3.36-4.28,3.36-7.81
				c0-3.12-1.24-5.42-3.72-6.89c-2.48-1.47-6.38-2.2-11.69-2.2h-5.08v-7.65h5.17c9.34,0,14.01-3.23,14.01-9.69
				c0-2.51-0.81-4.44-2.44-5.81c-1.63-1.36-4.03-2.04-7.21-2.04c-2.22,0-4.35,0.31-6.41,0.94c-2.06,0.63-4.48,1.85-7.29,3.66
				l-4.6-6.57c5.37-3.95,11.6-5.93,18.7-5.93c5.9,0,10.5,1.27,13.81,3.8C69.96,43.23,71.62,46.73,71.62,51.19z"/>
			<path class="st2" d="M126.53,66.44c0,9.66-2.68,17.05-8.05,22.16c-5.37,5.11-13.09,7.67-23.18,7.67H78.92V37.73h18.1
				c9.32,0,16.56,2.51,21.74,7.53C123.94,50.28,126.53,57.34,126.53,66.44z M116.44,66.76c0-14.01-6.55-21.02-19.66-21.02h-8.29
				v42.48h6.81C109.39,88.22,116.44,81.07,116.44,66.76z"/>
		</g>
	</g>
	<g id="Box_1_">
		<polygon class="st3" points="129.5,133.21 184.78,146.05 238.17,133.21 183.83,117.38 		"/>
		<polygon class="st4" points="184.78,239.05 129.5,224.3 129.5,133.21 184.78,146.05 		"/>
		<polygon class="st5" points="238.17,133.21 238.17,225.55 184.78,239.05 184.78,146.05 		"/>
	</g>
</g>
<g>
</g>
<g>
</g>
<g>
</g>
<g>
</g>
<g>
</g>
<g>
</g>
</svg>
