<svg version="1.1" id="Aspose.3D_for_Python_via_.NET" xmlns="http://www.w3.org/2000/svg" x="0" y="0" viewBox="0 0 272 272" style="enable-background:new 0 0 272 272" xml:space="preserve"><style>.st2{fill:#ffcd38}.st5{fill:#fff}</style><g id="Python_via_.NET"><g id="Python"><path id="XMLID_8_" d="M151.5 112.7c-22 0-40.6 7.7-56 23.2-15.4 15.4-23.2 34-23.2 56s7.7 40.6 23.2 55.8c5.7 5.8 11.8 10.5 18.4 14.1h-96c-1.5-.1-3-.5-4.5-1.3-2.4-1.2-3.6-3.4-3.6-6.8V58.3c.2-1.7.6-3.2 1.2-4.5 1.2-2.4 3.6-3.6 6.9-3.6h195.5l1.3.3c1.2.2 2.2.5 3 .9 2.5 1.2 3.7 3.5 3.7 6.9v96.2c-3.6-6.6-8.3-12.8-14.1-18.6-15.5-15.5-34.1-23.2-55.8-23.2z" style="fill-rule:evenodd;clip-rule:evenodd;fill:#fff"/><path id="XMLID_1_" d="M151.5 112.7c21.7 0 40.3 7.7 55.8 23.2 5.8 5.7 10.5 11.9 14.1 18.6V58.3c0-3.5-1.2-5.8-3.7-6.9-.9-.4-1.9-.7-3-.9l-1.3-.3H17.9c-3.4 0-5.7 1.2-6.9 3.6-.6 1.2-1 2.7-1.2 4.5v195.5c0 3.4 1.2 5.6 3.6 6.8 1.4.8 2.9 1.2 4.5 1.3H114c-6.6-3.6-12.7-8.3-18.4-14.1-15.4-15.3-23.2-33.9-23.2-55.8s7.7-40.6 23.2-56c15.3-15.6 34-23.3 55.9-23.3zm67.1-71.4c2.1.4 3.7.9 4.9 1.6 4.8 2.3 7.2 6.5 7.2 12.5v136.5c0 21.9-7.8 40.5-23.3 55.8-15.5 15.5-34.1 23.3-55.8 23.3H15c-2.3 0-4.7-.6-7.2-1.7C3 266.8.6 262.6.6 256.6V55.4c0-2.4.6-4.8 1.9-7.2C4.8 43.4 9 41 15 41h201.2l2.4.3z" style="fill-rule:evenodd;clip-rule:evenodd;fill:#ffcd38"/><path class="st2" d="M58.8 81.8c0 3.2-.9 5.8-2.8 7.9-1.8 2.1-4.4 3.5-7.8 4.2v.3c4 .5 7 1.7 9 3.7s3 4.6 3 7.9c0 4.8-1.7 8.5-5.1 11.1-3.4 2.6-8.2 3.9-14.5 3.9-5.5 0-10.2-.9-14-2.7V111c2.1 1 4.4 1.9 6.7 2.4 2.4.6 4.6.9 6.8.9 3.9 0 6.8-.7 8.7-2.1 1.9-1.4 2.9-3.6 2.9-6.7 0-2.7-1.1-4.6-3.2-5.9-2.1-1.3-5.4-1.9-10-1.9h-4.3v-6.5h4.4c8 0 11.9-2.8 11.9-8.3 0-2.1-.7-3.8-2.1-4.9-1.4-1.2-3.4-1.7-6.1-1.7-1.9 0-3.7.3-5.5.8-1.8.5-3.8 1.6-6.2 3.1l-3.9-5.6c4.6-3.4 9.9-5.1 15.9-5.1 5 0 8.9 1.1 11.8 3.2 3 2.3 4.4 5.3 4.4 9.1zM105.6 94.8c0 8.2-2.3 14.5-6.9 18.9-4.6 4.4-11.2 6.5-19.7 6.5H65V70.3h15.4c7.9 0 14.1 2.1 18.5 6.4 4.5 4.3 6.7 10.3 6.7 18.1zm-8.6.3c0-11.9-5.6-17.9-16.7-17.9h-7.1v36.2H79c12-.1 18-6.1 18-18.3z"/><g id="Box_1_"><path style="fill:#dbdbdd" d="m108.1 151.7 47.1 10.9 45.5-10.9-46.3-13.5z"/><path style="fill:#efedf0" d="m155.2 241.8-47.1-12.5v-77.6l47.1 10.9z"/><path class="st5" d="M200.7 151.7v78.6l-45.5 11.5v-79.2z"/></g></g><g id="NET"><circle cx="216.4" cy="56" r="55" style="fill:#672572"/><g id="XMLID_2_"><path id="XMLID_3_" class="st5" d="M229.9 42.1c.5-.4.8-1 .8-1.8 0-.7-.2-1.2-.6-1.6-.3-.3-.9-.7-1.6-.9-.7-.3-1.1-.5-1.3-.7-.3-.2-.3-.5-.3-.9 0-.3.2-.7.4-.9.3-.3.7-.3 1.1-.3.8 0 1.4.2 2 .6v-1.4c-.5-.3-1.2-.4-1.9-.4-.9 0-1.6.3-2.2.7-.6.5-.9 1.1-.9 1.8s.2 1.2.5 1.5.9.7 1.5.9c.7.3 1.2.6 1.4.8.3.3.3.5.3.9 0 .8-.5 1.2-1.6 1.2-.9 0-1.5-.3-2.2-.9v1.4c.6.3 1.4.5 2.1.5 1.1.3 1.8 0 2.5-.5z"/><path id="XMLID_29_" class="st5" d="M242.8 42.6h1.4v-7.4h2V34h-2v-1.4c0-1.2.5-1.8 1.4-1.8.3 0 .7.1.9.3v-1.3c-.3-.1-.6-.2-1-.2-.8 0-1.4.3-1.9.7-.6.5-.9 1.3-.9 2.2v1.4h-1.3v1.2h1.4v7.5z"/><path id="XMLID_30_" class="st5" d="M198.9 31.8c.3 0 .4-.1.7-.3.2-.2.3-.4.3-.7s-.1-.4-.3-.6-.4-.3-.7-.3-.4.1-.6.3c-.2.2-.3.4-.3.6 0 .3.1.5.3.7s.3.3.6.3z"/><path id="XMLID_31_" class="st5" d="M205.8 42.9c.9 0 1.7-.2 2.4-.6V41c-.7.5-1.4.8-2.1.8-.9 0-1.6-.3-2.1-.9-.5-.6-.8-1.4-.8-2.4s.3-1.9.9-2.5c.5-.6 1.3-.9 2.1-.9s1.4.3 2 .7v-1.4c-.6-.3-1.3-.4-2-.4-1.4 0-2.5.4-3.2 1.3-.9.9-1.2 2-1.2 3.4 0 1.3.3 2.3 1.1 3.1.6.6 1.6 1.1 2.9 1.1z"/><path id="XMLID_34_" class="st5" d="M254.8 34.7h.3c.2 0 .3.2.5.5l.3.7h.5l-.4-.8c-.2-.3-.3-.5-.5-.5.3-.1.4-.2.5-.3.2-.2.2-.3.2-.5 0-.3-.1-.4-.3-.5-.2-.2-.4-.3-.9-.3h-.9v2.9h.4v-1.2h.3zm0-1.4h.3c.3 0 .4.1.5.2.1.1.2.2.2.3 0 .3-.2.5-.6.5h-.4v-1z"/><path id="XMLID_35_" class="st5" d="M248.4 40.3c0 1.7.8 2.6 2.2 2.6.5 0 .9-.1 1.3-.3v-1.2c-.3.2-.5.3-.9.3s-.8-.1-1-.3c-.2-.3-.3-.7-.3-1.2v-4.8h2.1v-1.3h-2.1v-2.6c-.5.2-.9.3-1.4.4V34h-1.4v1.2h1.4l.1 5.1z"/><path id="XMLID_40_" class="st5" d="M255.2 36.7c.7 0 1.2-.3 1.6-.7s.7-.9.7-1.6c0-.7-.3-1.2-.7-1.6-.4-.4-.9-.6-1.6-.6-.7 0-1.2.3-1.6.7-.4.4-.7 1-.7 1.6 0 .7.3 1.2.7 1.6.4.5 1 .6 1.6.6zm-1.3-3.6c.4-.4.9-.6 1.4-.6s1 .2 1.4.6c.4.4.6.9.6 1.4s-.2 1.1-.6 1.4c-.4.4-.9.6-1.4.6s-1-.2-1.4-.6-.6-.9-.6-1.4.1-1.1.6-1.4z"/><path id="XMLID_41_" class="st5" d="M198.2 34h1.4v8.6h-1.4V34z"/><path id="XMLID_44_" class="st5" d="M219.5 42.9c1.3 0 2.4-.4 3.1-1.3.8-.9 1.2-2 1.2-3.3s-.3-2.5-1.1-3.3c-.7-.8-1.7-1.2-3-1.2s-2.4.3-3.1 1.1c-.9.9-1.3 2-1.3 3.5 0 1.3.3 2.4 1.1 3.1.8.9 1.8 1.4 3.1 1.4zm-1.9-7.1c.5-.6 1.2-.9 2-.9.9 0 1.5.3 2 .9.5.6.8 1.4.8 2.6 0 1-.3 1.9-.7 2.5-.5.6-1.2.9-2 .9-.9 0-1.5-.3-2.1-.9-.5-.6-.8-1.4-.8-2.4 0-1.3.2-2.1.8-2.7z"/><path id="XMLID_47_" class="st5" d="M239.2 41.6c.8-.9 1.2-2 1.2-3.3s-.3-2.5-1.1-3.3c-.7-.8-1.7-1.2-3-1.2s-2.4.3-3.1 1.1c-.9.9-1.3 2-1.3 3.5 0 1.3.3 2.4 1.1 3.1.8.9 1.8 1.3 3.1 1.3 1.4.1 2.4-.4 3.1-1.2zm-5.8-3.3c0-1.1.3-2 .9-2.6.5-.6 1.2-.9 2-.9.9 0 1.5.3 2 .9.5.6.8 1.4.8 2.6 0 1-.3 1.9-.7 2.5-.5.6-1.2.9-2 .9s-1.5-.3-2.1-.9c-.7-.6-.9-1.4-.9-2.5z"/><path id="XMLID_48_" class="st5" d="M219.1 63.8h11.4v-3.3h-11.4V49.9h12.3v-3.3h-16.1v31.6h16.8v-3.3h-13V63.8z"/><path id="XMLID_49_" class="st5" d="M235.6 49.9h9.1v28.3h3.7V49.9h9.1v-3.3h-21.9v3.3z"/><path id="XMLID_50_" class="st5" d="M175 73.7c-.7 0-1.3.3-1.7.8-.5.5-.7 1.1-.7 1.8s.3 1.3.7 1.8c.5.5 1 .8 1.7.8s1.3-.3 1.8-.8.8-1.1.8-1.8-.3-1.3-.8-1.8-1-.8-1.8-.8z"/><path id="XMLID_51_" class="st5" d="M212.6 34.3c-.4.3-.8.9-.9 1.4v-1.8h-1.4v8.6h1.4v-4.3c0-1 .3-1.8.7-2.4.3-.5.9-.8 1.4-.8.4 0 .9.1 1 .3v-1.4c-.2-.1-.4-.1-.9-.1-.4 0-.9.2-1.3.5z"/><path id="XMLID_52_" class="st5" d="M184.2 32.2h.1l4.4 10.4h.7l4.5-10.4-.1 10.4h1.5v-12h-1.8l-4.4 9.8-4.3-9.8h-1.9v12h1.4l-.1-10.4z"/><path id="XMLID_53_" class="st5" d="m204.7 73.3-16.9-26.7h-4.9v31.6h3.8V51.1l17.2 27.1h4.5V46.6h-3.7v26.7z"/></g></g></g></svg>